<?xml version="1.0" standalone="no"?>
<!DOCTYPE svg PUBLIC "-//W3C//DTD SVG 20010904//EN"
 "http://www.w3.org/TR/2001/REC-SVG-20010904/DTD/svg10.dtd">
<svg version="1.0" xmlns="http://www.w3.org/2000/svg"
 width="1080.000000pt" height="1080.000000pt" viewBox="0 0 1080.000000 1080.000000"
 preserveAspectRatio="xMidYMid meet">
<metadata>
Created by potrace 1.16, written by Peter Selinger 2001-2019
</metadata>
<g transform="translate(0.000000,1080.000000) scale(0.100000,-0.100000)"
fill="#000000" stroke="none">
<path d="M3647 8298 c-8 -13 -75 -84 -148 -159 -106 -107 -142 -151 -172 -210
-23 -43 -56 -89 -80 -110 l-42 -36 -42 20 c-24 12 -43 28 -43 37 0 9 -17 52
-38 96 -21 43 -44 99 -50 124 -19 78 -49 133 -105 193 -66 71 -88 73 -115 15
-48 -102 -53 -285 -12 -436 l22 -82 -28 -23 c-65 -50 -108 -94 -150 -153 -24
-34 -44 -65 -44 -69 0 -4 -22 -39 -49 -78 -97 -142 -295 -496 -316 -567 -10
-32 -80 -142 -147 -228 -54 -70 -129 -219 -150 -296 -19 -73 20 -236 57 -236
6 0 15 -10 20 -22 6 -12 27 -35 48 -52 37 -30 43 -31 165 -37 70 -4 155 -10
188 -14 34 -4 82 -5 107 -1 l46 7 11 54 c11 54 25 77 87 144 18 20 33 41 33
47 0 21 56 36 189 51 129 14 135 14 160 -5 34 -25 67 -84 75 -134 7 -42 37
-104 111 -228 25 -41 57 -100 72 -130 14 -30 49 -91 76 -135 27 -44 67 -113
88 -154 22 -40 48 -85 58 -100 10 -14 31 -78 46 -141 40 -173 79 -233 220
-339 75 -56 174 -174 194 -231 7 -19 19 -63 26 -97 8 -35 29 -102 48 -150 51
-128 68 -226 61 -353 l-6 -105 42 -110 c40 -105 42 -118 52 -272 8 -124 7
-187 -2 -265 -7 -57 -16 -148 -19 -204 l-6 -101 -45 -51 c-35 -39 -53 -74 -83
-159 -58 -160 -58 -159 -6 -167 35 -6 48 -3 71 14 38 28 41 25 18 -20 -23 -45
-25 -71 -8 -88 19 -19 245 -16 282 3 15 8 34 15 42 15 7 0 21 11 30 25 18 28
74 190 74 214 0 9 -16 36 -36 61 -29 36 -34 50 -30 75 9 44 39 79 72 85 28 5
29 6 26 63 -3 49 -1 56 12 51 21 -8 21 -5 -4 241 -23 231 -26 352 -10 449 12
76 15 267 6 331 -19 119 -17 216 3 342 12 70 24 143 27 161 3 18 10 34 17 36
7 2 35 11 62 20 76 25 365 23 464 -3 40 -11 78 -24 84 -30 6 -6 21 -11 32 -11
12 0 57 -10 101 -21 43 -12 93 -23 109 -24 17 -2 57 -11 90 -20 115 -32 457
-66 665 -67 168 -1 406 10 468 22 130 23 229 62 356 138 50 30 61 33 70 21 28
-37 61 -49 132 -49 83 0 86 -2 136 -105 49 -99 141 -237 215 -323 35 -41 72
-91 83 -113 26 -50 64 -250 86 -456 16 -153 16 -166 0 -223 -20 -75 -72 -180
-138 -280 -51 -77 -52 -84 -33 -162 6 -21 3 -27 -13 -32 -37 -12 -75 -61 -119
-153 -24 -51 -57 -115 -73 -141 -17 -27 -30 -55 -30 -61 0 -29 179 -70 229
-53 l30 11 -6 -48 c-5 -48 -5 -48 27 -55 73 -14 145 -6 245 29 134 47 148 58
159 129 8 53 6 59 -19 96 -16 22 -26 42 -24 44 2 2 18 11 36 20 38 19 48 55
40 149 -5 70 3 110 73 362 27 94 58 220 69 280 12 61 31 150 42 200 21 93 19
151 -6 190 -13 22 -38 107 -60 210 -8 37 -13 136 -14 256 -1 212 1 225 64 364
15 33 43 104 61 158 19 55 77 183 129 285 l95 186 0 -76 c0 -42 4 -79 9 -83 6
-3 6 -17 1 -33 -13 -49 -33 -239 -27 -269 3 -15 -2 -55 -10 -88 -13 -50 -14
-95 -8 -270 4 -115 7 -232 7 -260 0 -27 -1 -111 -1 -185 -1 -87 4 -160 14
-205 8 -38 15 -87 15 -107 0 -39 19 -106 49 -173 24 -53 81 -227 81 -247 0 -9
9 -26 21 -39 l20 -24 -5 90 -6 90 22 -42 c36 -71 47 -63 46 31 -1 71 2 87 20
111 31 39 36 82 22 194 -10 83 -10 103 3 127 40 79 45 316 13 574 -8 69 -15
201 -16 293 0 151 -3 183 -30 297 -28 122 -29 137 -23 273 l6 144 -36 114
c-61 194 -87 286 -87 307 0 10 -8 30 -19 43 -10 13 -27 42 -39 64 -11 22 -48
72 -81 110 -33 39 -60 75 -61 82 0 16 -144 148 -210 193 -83 56 -170 97 -256
120 -42 12 -85 25 -95 31 -23 12 -119 41 -219 65 -105 26 -247 23 -435 -11
-120 -21 -202 -28 -410 -35 -327 -12 -626 -27 -823 -41 -191 -15 -301 -5 -667
56 -49 8 -151 19 -225 25 -241 18 -659 88 -590 98 53 8 47 41 -7 42 -13 0 -23
5 -23 10 0 13 -75 13 -123 -1 -77 -21 -57 -2 37 35 53 21 99 42 102 48 12 19
-12 29 -42 18 -20 -8 -30 -8 -32 -1 -6 18 -54 12 -111 -14 -30 -14 -59 -24
-65 -21 -28 10 198 86 256 86 18 0 28 5 28 15 0 10 -10 15 -29 15 -17 0 -32 4
-35 9 -3 5 -35 8 -71 6 -36 -1 -65 0 -65 2 0 2 27 15 60 30 43 18 60 31 60 44
0 29 -26 23 -117 -26 -46 -25 -88 -43 -93 -40 -15 9 -40 -7 -56 -36 -8 -16
-19 -29 -24 -29 -15 0 -50 42 -43 53 3 5 10 2 15 -7 11 -19 38 -21 38 -2 0 7
14 30 30 51 41 51 39 76 -8 97 -38 17 -83 14 -145 -11 -37 -14 -47 -14 -47 2
0 17 39 36 104 51 27 6 51 17 54 24 6 19 -60 15 -123 -7 -55 -19 -55 -19 -66
1 -9 17 -5 27 20 58 36 46 40 65 10 57 -19 -5 -20 -4 -5 12 24 27 20 44 -9 39
-17 -4 -25 -1 -25 8 0 9 -13 14 -37 15 l-38 1 38 8 c43 8 52 14 42 29 -7 13
-70 5 -129 -16 -21 -7 -45 -13 -53 -13 -24 0 3 27 48 51 59 30 60 43 3 36
l-49 -5 38 19 c43 23 53 55 11 39 -14 -6 -34 -14 -44 -20 -15 -8 -17 -6 -13
10 8 29 -8 25 -56 -17 l-43 -36 32 57 c28 49 31 61 21 82 -18 41 -43 26 -79
-48 -23 -48 -37 -65 -47 -61 -22 8 -18 32 10 78 29 47 31 68 8 63 -9 -2 -31
-30 -49 -63 -35 -62 -45 -64 -20 -4 8 19 24 43 35 53 27 25 26 40 -4 64 -33
26 -32 40 8 93 54 74 65 101 76 194 7 50 18 126 26 170 22 127 21 135 -19 135
-24 0 -38 -7 -49 -22z"/>
</g>
</svg>
